<?xml version="1.0" encoding="UTF-8"?>
<svg xmlns="http://www.w3.org/2000/svg" viewBox="0 0 500 500">
  <defs>
    <style>
      .cls-1 {
        opacity: .19;
      }

      .cls-2 {
        fill: #6ca37f;
      }

      .cls-3 {
        fill: #f48181;
      }

      .cls-4 {
        fill: #0e2636;
      }

      .cls-5 {
        fill: #fdc591;
      }
    </style>
  </defs>
  <g id="Layer_1" data-name="Layer 1">
    <g>
      <path class="cls-2" d="M303.32,360.72c21.93-13.34,51.41-1,56.88,24.33-.67-.15-1.26-.25-1.83-.42-12.78-3.93-25.56-7.85-38.33-11.81-6.87-2.13-12.36-6.18-16.73-12.1Z"/>
      <path class="cls-2" d="M297.64,364.72c3.88,5.56,5.9,11.6,5.65,18.15-.56,14.29-1.43,28.56-2.17,42.84-.01,.2-.11,.39-.17,.61-21.21-12.84-23.97-45.16-3.3-61.6Z"/>
      <path class="cls-2" d="M317.31,380.68c9.24,2.69,17.93,5.21,26.61,7.74,2.55,.74,5.12,1.45,7.65,2.25,6,1.88,9.74,6.9,9.86,13.2,.05,2.79,.01,5.59,.01,8.62-.69-.17-1.22-.27-1.74-.42-5.86-1.71-11.72-3.45-17.59-5.13-4.78-1.37-8.9-3.87-11.85-7.81-4.38-5.85-8.42-11.95-12.96-18.44Z"/>
      <path class="cls-2" d="M326.36,437.09c-3.22-1.21-6.32-2.15-9.22-3.51-5.21-2.46-8.17-6.78-7.9-12.51,.55-11.96,1.53-23.89,2.35-36.23,.59,.75,.99,1.21,1.33,1.7,3.42,4.88,6.78,9.8,10.25,14.64,3.49,4.87,4.99,10.25,4.53,16.22-.49,6.5-.9,13.01-1.36,19.69Z"/>
      <path class="cls-2" d="M335.73,413.04c5.18,1.46,10.14,2.7,14.98,4.28,5.84,1.9,9.68,7.62,9.4,13.79-.19,4.16-.64,8.31-.95,12.47-.14,1.91-1.14,2.5-2.92,2-4.08-1.15-8.21-2.16-12.24-3.46-5.75-1.85-9.53-7.23-9.49-13.29,.02-2.3,.26-4.59,.45-6.88,.23-2.86,.5-5.72,.78-8.91Z"/>
    </g>
  </g>
  <g id="Layer_3" data-name="Layer 3">
    <path class="cls-3" d="M385.96,286.53c-6.1,2.79-12.67,3.69-19.31,4.1-.19,.43-.37,.86-.56,1.3,.54,2.48,2.2,4.39,3.45,6.49,4.64,7.75,7.54,16.06,7.56,25.12,.04,21.51-18.2,37.61-39.02,34.77-10.96-1.49-19.67-7.12-27.89-13.91-1.13-.93-2.18-1.96-3.36-2.83-1.83-1.34-3.24-.87-3.63,1.39-.96,5.47-2.08,10.87-4.18,16.04-3.53,8.73-8.75,16.1-17.01,20.94-2.88,1.69-5.86,2.89-8.94,3.64-4.29,1.07-8.76,1.27-13.35,.75-14.41-1.64-24.03-9.7-30.21-22.5-1.94-4.02-3.63-8.07-4.47-12.46-.93-2.72-.57-5.74-1.92-8.36-1.36-.61-2.38-.25-3.47,.78-5.65,5.36-11.74,10.11-18.84,13.42-2.93,1.36-5.98,2.35-9.19,2.78-4.96,.91-9.89,1.06-14.78-.38-4.89-1.21-9.55-2.85-13.1-6.68l-.05-.05c-2.97-1.4-4.7-4.06-6.52-6.56-2.64-3.63-4.61-7.6-5.39-12.08-.11-.06-.13-.15-.07-.26-.74-1.53-.9-3.17-.91-4.84-.41-.75-.32-1.56-.26-2.36-.24-2.74-.14-5.45,.72-8.1,.05-.38,.1-.75,.15-1.13,.77-6.1,3.22-11.59,6.19-16.89,.48-.85,1.09-1.64,1.64-2.46,.37-.74,.72-1.49,1.1-2.23,1.25-2.43,.93-3.09-1.81-3.67-.37-.07-.74-.15-1.11-.23-16.25-.38-31.87-10.52-36.05-27.78-.21-.87-.79-1.7-.44-2.67-1.49-9.63-.29-18.76,5.27-26.98,5.11-7.56,12.21-12.48,20.88-15.19,3.68-1.15,7.44-1.98,11.24-2.64,2.92-.51,3.4-1.7,1.61-4.27-3.55-5.12-6.16-10.66-7.8-16.65-3.23-11.78-3.08-23.26,3.35-34.12,7.64-12.87,23.34-20.32,40.72-14.83,8.11,2.56,15.25,6.92,21.9,12.15,.54,.42,1.07,.88,1.67,1.22,1.85,1.05,3.41,.43,3.79-1.67,.57-3.1,.7-6.29,1.43-9.34,3.57-14.98,11.47-26.48,26.55-31.82,6.97-2.47,14.53-2.54,21.53-.57,7.04,1.98,13.51,6.03,18.23,11.78,.48,.58,.84,1.27,1.25,1.91,3.52,3.69,5.6,8.23,7.32,12.92,1.86,5.08,2.62,10.42,3.28,15.76,1.61,1.88,2.56,2.02,4.6,.4,5.69-4.5,11.66-8.51,18.47-11.16,9.01-3.51,18.16-4.76,27.52-1.52,6.13,2.12,11.14,5.84,15.14,10.93,4.36,4.81,6.66,10.58,7.92,16.85,1.08,5.43,1.12,10.88-.04,16.27-1.69,7.86-4.57,15.22-9.64,21.59-.12,.16-.24,.32-.36,.48v.04c-.1,.56-.21,1.12-.31,1.68,.11,.41,.21,.83,.31,1.24,4.11,1.47,8.53,1.54,12.68,2.91,7.83,2.6,14.68,6.57,19.7,13.29,.53,.29,.87,.73,1,1.32,.48,.21,.7,.6,.77,1.1,.94,.86,1.71,1.83,1.84,3.17,1.68,1.44,2.09,3.56,2.74,5.48,6.1,18.13-2.13,37.23-19.53,45.18Z"/>
    <g>
      <g>
        <path class="cls-1" d="M363.09,232.92c-2.38-9.73-6.3-18.8-11.51-27.26-4.91-7.97-11.16-14.93-18.23-21.13-5.55-4.86-11.47-9.3-17.97-12.7-17.89-9.36-36.9-13.33-57.11-10.92-14.79,1.77-28.41,6.83-40.86,14.8-13.77,8.81-24.82,20.29-32.79,34.75-7.11,12.92-10.83,26.7-11.33,41.3-.41,11.91,1.56,23.57,5.7,34.81,3.24,8.84,7.63,17.04,13.51,24.4,4.66,5.83,9.8,11.19,15.45,16.06,6.88,4.81,14.12,9,21.55,12.87,0,.01-.02,.15-.02,.15,.66,0,1.31,.05,1.68,.72l.04,.03c.54-.04,1.01,.1,1.35,.55,1.15,.3,2.34,.5,3.44,.92,9.76,3.77,19.97,5.2,30.32,5.6,14,.53,27.4-2.28,40.43-7.43,17.77-7.04,31.6-18.83,42.61-34.23,9.87-13.79,15.01-29.22,16.15-46.06,0-9.14-.22-18.25-2.41-27.23Z"/>
        <path class="cls-5" d="M200.29,242.65c-3.05-.07-5.71,2.48-5.74,5.51-.03,3.68,2.06,5.97,5.46,5.99,3.19,.02,5.83-2.59,5.86-5.79,.03-3.18-2.37-5.63-5.58-5.71Z"/>
        <path class="cls-5" d="M307.12,242.58c-3.08-.03-5.86,2.74-5.89,5.87-.04,3.05,2.54,5.64,5.61,5.63,3.55-.01,5.96-2.32,5.91-5.64-.05-2.89-2.87-5.83-5.62-5.86Z"/>
      </g>
      <path class="cls-5" d="M354.24,227.94c-2.38-9.73-6.3-18.8-11.51-27.26-4.91-7.97-11.16-14.93-18.23-21.13-5.55-4.86-11.47-9.3-17.97-12.7-17.89-9.36-36.9-13.33-57.11-10.92-14.79,1.77-28.41,6.83-40.86,14.8-13.77,8.81-24.82,20.29-32.79,34.75-7.11,12.92-10.83,26.7-11.33,41.3-.41,11.91,1.56,23.57,5.7,34.81,3.24,8.84,7.63,17.04,13.51,24.4,4.66,5.83,9.8,11.19,15.45,16.06,6.88,4.81,14.12,9,21.55,12.87,0,.01-.02,.15-.02,.15,.66,0,1.31,.05,1.68,.72l.04,.03c.54-.04,1.01,.1,1.35,.55,1.15,.3,2.34,.5,3.44,.92,9.76,3.77,19.97,5.2,30.32,5.6,14,.53,27.4-2.28,40.43-7.43,17.77-7.04,31.6-18.83,42.61-34.23,9.87-13.79,15.01-29.22,16.15-46.06,0-9.14-.22-18.25-2.41-27.23Z"/>
      <path d="M187.53,253.55c-.13-11.19,8.51-20.17,19.46-20.21,10.74-.04,19.87,8.86,20.03,19.52,.16,10.24-9.36,20.23-19.6,20.15-10.16-.07-20.43-8.18-19.9-19.47Zm12.49,.61c3.19,.02,5.83-2.59,5.86-5.79,.03-3.18-2.37-5.63-5.58-5.71-3.05-.07-5.71,2.48-5.74,5.51-.03,3.68,2.06,5.97,5.46,5.99Z"/>
      <path d="M334.07,253.18c.39,8.5-8.45,19.89-19.31,19.89-10.52,0-20.07-9.24-20.15-19.64-.08-11.1,8.79-20.29,19.97-20.13,11.91,.17,19.88,10.17,19.49,19.88Zm-27.22,.89c3.55-.01,5.96-2.32,5.91-5.64-.05-2.89-2.87-5.83-5.62-5.86-3.08-.03-5.86,2.74-5.89,5.87-.04,3.05,2.54,5.64,5.61,5.63Z"/>
      <path d="M255.95,274.07c-4.02-.31-10.3-2.97-14.2-9.5-2.2-3.69-3.14-7.9-2.06-12.27,.78-3.18,3.77-5.55,6.61-5.4,2.94,.15,4.62,1.98,5.27,5.79,1.17,6.76,7.97,9.98,14.04,6.71,2.68-1.44,3.64-3.75,3.89-6.59,.32-3.62,2.03-5.57,5.08-5.91,2.81-.31,5.5,1.53,6.65,4.49,1.18,3.04,.73,6.03-.22,8.99-2.82,8.74-11.15,14.02-25.05,13.7Z"/>
    </g>
    <path class="cls-4" d="M343.24,372.85c-10.81-.13-20.2-2.58-28.71-8.12-2.55-1.66-2.51-1.59-3.67,1.21-7.37,17.72-20.12,29.18-39.29,32.26-21.35,3.44-41.33-6.1-52.14-26.09-1.24-2.29-2.33-4.68-3.28-7.11-.63-1.6-1.3-1.7-2.62-.78-5.44,3.77-11.41,6.31-17.92,7.61-29.79,5.97-54.3-13.94-58.14-40.86-1.32-9.26-.33-18.29,3.17-26.98,.83-2.06,.5-2.88-1.75-3.74-18.11-6.95-28.62-20.2-31.5-39.32-2.08-13.8,.42-26.74,8.81-38.15,5.79-7.87,13.18-13.75,22.53-16.97,2.82-.97,2.72-.96,1.72-3.85-5.32-15.36-5.82-30.66,1.23-45.64,8.58-18.21,27.84-28.88,47.79-26.94,8.05,.78,15.52,3.14,22.33,7.43,1.95,1.23,2.41,.7,3.01-1.18,4.07-12.77,11.75-22.98,23.45-29.38,18.07-9.89,36.23-9.19,53.56,2.15,10.38,6.79,17,16.57,20.57,28.39,.59,1.97,1.24,.64,1.86,.27,13.38-8.08,27.71-10.45,42.59-5.63,18.24,5.9,29.1,19.04,33.3,37.52,2.51,11.06,1.17,22.03-2.7,32.68-1.11,3.06-1.06,3.07,1.86,4.26,16.33,6.7,26.93,18.56,30.73,35.77,4.38,19.84-2.43,41.65-20.84,53.56-3.37,2.18-6.94,3.96-10.78,5.16-1.57,.49-2.16,1.19-1.45,3.01,3.58,9.21,5.05,18.73,3.29,28.54-3.67,20.44-18.34,37.28-41,40.52-2.21,.32-4.46,.31-5.96,.41Zm56.89-141.25l.03,.05c-.13-.63-.48-1.08-1.04-1.38l.03,.02c-5.02-6.72-11.87-10.69-19.7-13.29-4.18-1.39-8.65-1.45-12.79-2.95l.11,.05c-.11-.42-.21-.84-.32-1.25l.31-1.69s0-.04,0-.04c.12-.16,.24-.32,.36-.48,5.07-6.37,7.95-13.74,9.64-21.59,1.16-5.39,1.12-10.84,.04-16.27-1.25-6.27-3.56-12.04-7.92-16.85-4-5.09-9.01-8.82-15.14-10.94-9.37-3.24-18.52-1.99-27.53,1.52-6.8,2.65-12.78,6.66-18.47,11.16-2.04,1.62-2.99,1.48-4.6-.4-.65-5.35-1.42-10.69-3.28-15.77-1.72-4.69-3.8-9.23-7.31-12.92-.41-.64-.77-1.33-1.25-1.91-9.41-11.45-25.77-16.16-39.77-11.21-15.07,5.34-22.98,16.84-26.54,31.82-.73,3.05-.86,6.25-1.43,9.34-.39,2.1-1.95,2.72-3.79,1.67-.6-.34-1.13-.8-1.68-1.23-6.64-5.23-13.78-9.58-21.89-12.15-17.38-5.49-33.09,1.96-40.72,14.84-6.43,10.86-6.58,22.33-3.36,34.12,1.64,5.98,4.25,11.53,7.8,16.64,1.79,2.58,1.31,3.77-1.61,4.27-3.8,.66-7.55,1.49-11.23,2.64-8.67,2.71-15.78,7.63-20.89,15.19-5.56,8.22-6.76,17.36-5.27,26.98-.35,.97,.24,1.8,.44,2.67,4.18,17.26,19.8,27.4,36.05,27.78,.37,.08,.74,.16,1.11,.23,2.74,.58,3.06,1.24,1.81,3.67-.38,.74-.73,1.48-1.1,2.22-.55,.82-1.16,1.61-1.64,2.46-2.97,5.29-5.42,10.78-6.19,16.88-.05,.38-.1,.75-.15,1.13-.86,2.64-.95,5.36-.71,8.1-.06,.8-.15,1.61,.26,2.36,.01,1.67,.17,3.31,.91,4.84-.06,.11-.03,.19,.07,.25,.78,4.48,2.75,8.45,5.39,12.08,1.83,2.51,3.55,5.17,6.52,6.56l.05,.05c3.55,3.83,8.22,5.47,13.11,6.68,4.89,1.45,9.82,1.29,14.77,.38,3.21-.43,6.27-1.42,9.19-2.79,7.1-3.31,13.2-8.06,18.84-13.41,1.09-1.04,2.12-1.39,3.47-.79,1.35,2.62,1,5.64,1.92,8.36,.84,4.39,2.53,8.44,4.47,12.46,6.18,12.8,15.8,20.86,30.21,22.5,7.88,.9,15.4-.35,22.3-4.39,8.26-4.84,13.47-12.21,17.01-20.93,2.1-5.17,3.22-10.58,4.18-16.04,.4-2.26,1.8-2.73,3.63-1.39,1.18,.86,2.23,1.9,3.36,2.83,8.22,6.79,16.93,12.41,27.89,13.91,20.82,2.84,39.06-13.26,39.02-34.77-.02-9.07-2.92-17.37-7.56-25.12-1.26-2.1-2.91-4.01-3.45-6.49,.19-.43,.37-.86,.56-1.3,6.64-.41,13.22-1.31,19.32-4.1,17.4-7.95,25.63-27.05,19.52-45.17-.65-1.93-1.05-4.05-2.74-5.49-.13-1.34-.9-2.31-1.85-3.17-.07-.51-.3-.9-.79-1.1Z"/>
    <path d="M343.24,372.85c-10.81-.13-20.2-2.58-28.71-8.12-2.55-1.66-2.51-1.59-3.67,1.21-7.37,17.72-20.12,29.18-39.29,32.26-21.35,3.44-41.33-6.1-52.14-26.09-1.24-2.29-2.33-4.68-3.28-7.11-.63-1.6-1.3-1.7-2.62-.78-5.44,3.77-11.41,6.31-17.92,7.61-29.79,5.97-54.3-13.94-58.14-40.86-1.32-9.26-.33-18.29,3.17-26.98,.83-2.06,.5-2.88-1.75-3.74-18.11-6.95-28.62-20.2-31.5-39.32-2.08-13.8,.42-26.74,8.81-38.15,5.79-7.87,13.18-13.75,22.53-16.97,2.82-.97,2.72-.96,1.72-3.85-5.32-15.36-5.82-30.66,1.23-45.64,8.58-18.21,27.84-28.88,47.79-26.94,8.05,.78,15.52,3.14,22.33,7.43,1.95,1.23,2.41,.7,3.01-1.18,4.07-12.77,11.75-22.98,23.45-29.38,18.07-9.89,36.23-9.19,53.56,2.15,10.38,6.79,17,16.57,20.57,28.39,.59,1.97,1.24,.64,1.86,.27,13.38-8.08,27.71-10.45,42.59-5.63,18.24,5.9,29.1,19.04,33.3,37.52,2.51,11.06,1.17,22.03-2.7,32.68-1.11,3.06-1.06,3.07,1.86,4.26,16.33,6.7,26.93,18.56,30.73,35.77,4.38,19.84-2.43,41.65-20.84,53.56-3.37,2.18-6.94,3.96-10.78,5.16-1.57,.49-2.16,1.19-1.45,3.01,3.58,9.21,5.05,18.73,3.29,28.54-3.67,20.44-18.34,37.28-41,40.52-2.21,.32-4.46,.31-5.96,.41Zm56.89-141.25l.03,.05c-.13-.63-.48-1.08-1.04-1.38l.03,.02c-5.02-6.72-11.87-10.69-19.7-13.29-4.18-1.39-8.65-1.45-12.79-2.95l.11,.05c-.11-.42-.21-.84-.32-1.25l.31-1.69s0-.04,0-.04c.12-.16,.24-.32,.36-.48,5.07-6.37,7.95-13.74,9.64-21.59,1.16-5.39,1.12-10.84,.04-16.27-1.25-6.27-3.56-12.04-7.92-16.85-4-5.09-9.01-8.82-15.14-10.94-9.37-3.24-18.52-1.99-27.53,1.52-6.8,2.65-12.78,6.66-18.47,11.16-2.04,1.62-2.99,1.48-4.6-.4-.65-5.35-1.42-10.69-3.28-15.77-1.72-4.69-3.8-9.23-7.31-12.92-.41-.64-.77-1.33-1.25-1.91-9.41-11.45-25.77-16.16-39.77-11.21-15.07,5.34-22.98,16.84-26.54,31.82-.73,3.05-.86,6.25-1.43,9.34-.39,2.1-1.95,2.72-3.79,1.67-.6-.34-1.13-.8-1.68-1.23-6.64-5.23-13.78-9.58-21.89-12.15-17.38-5.49-33.09,1.96-40.72,14.84-6.43,10.86-6.58,22.33-3.36,34.12,1.64,5.98,4.25,11.53,7.8,16.64,1.79,2.58,1.31,3.77-1.61,4.27-3.8,.66-7.55,1.49-11.23,2.64-8.67,2.71-15.78,7.63-20.89,15.19-5.56,8.22-6.76,17.36-5.27,26.98-.35,.97,.24,1.8,.44,2.67,4.18,17.26,19.8,27.4,36.05,27.78,.37,.08,.74,.16,1.11,.23,2.74,.58,3.06,1.24,1.81,3.67-.38,.74-.73,1.48-1.1,2.22-.55,.82-1.16,1.61-1.64,2.46-2.97,5.29-5.42,10.78-6.19,16.88-.05,.38-.1,.75-.15,1.13-.86,2.64-.95,5.36-.71,8.1-.06,.8-.15,1.61,.26,2.36,.01,1.67,.17,3.31,.91,4.84-.06,.11-.03,.19,.07,.25,.78,4.48,2.75,8.45,5.39,12.08,1.83,2.51,3.55,5.17,6.52,6.56l.05,.05c3.55,3.83,8.22,5.47,13.11,6.68,4.89,1.45,9.82,1.29,14.77,.38,3.21-.43,6.27-1.42,9.19-2.79,7.1-3.31,13.2-8.06,18.84-13.41,1.09-1.04,2.12-1.39,3.47-.79,1.35,2.62,1,5.64,1.92,8.36,.84,4.39,2.53,8.44,4.47,12.46,6.18,12.8,15.8,20.86,30.21,22.5,7.88,.9,15.4-.35,22.3-4.39,8.26-4.84,13.47-12.21,17.01-20.93,2.1-5.17,3.22-10.58,4.18-16.04,.4-2.26,1.8-2.73,3.63-1.39,1.18,.86,2.23,1.9,3.36,2.83,8.22,6.79,16.93,12.41,27.89,13.91,20.82,2.84,39.06-13.26,39.02-34.77-.02-9.07-2.92-17.37-7.56-25.12-1.26-2.1-2.91-4.01-3.45-6.49,.19-.43,.37-.86,.56-1.3,6.64-.41,13.22-1.31,19.32-4.1,17.4-7.95,25.63-27.05,19.52-45.17-.65-1.93-1.05-4.05-2.74-5.49-.13-1.34-.9-2.31-1.85-3.17-.07-.51-.3-.9-.79-1.1Z"/>
  </g>
</svg>