<svg xmlns="http://www.w3.org/2000/svg" viewBox="0 0 500 500"><defs><style>.cls-2{fill:#6ca37f}.cls-5{fill:#fdc591}</style></defs><g id="Layer_1" data-name="Layer 1"><path d="M303 361c22-14 52-1 57 24h-2l-38-12c-7-2-12-6-17-12ZM298 365c4 5 6 11 5 18l-2 43a38 38 0 0 1-3-61ZM317 381l27 7 8 3c6 2 9 7 9 13v8h-1l-18-5c-5-1-9-4-12-8l-13-18ZM326 437l-9-3c-5-3-8-7-8-13l3-36 1 2 10 14c4 5 5 10 5 16l-2 20ZM336 413l15 4c6 2 9 8 9 14l-1 13c0 1-1 2-3 2l-12-4c-6-2-10-7-9-13v-7l1-9Z" class="cls-2"/></g><g id="Layer_3" data-name="Layer 3"><path fill="#f48181" d="m386 287-19 4-1 1 4 6c4 8 7 16 7 26 0 21-18 37-39 34-11-1-20-7-28-14l-3-2c-2-2-3-1-4 1l-4 16c-4 9-9 16-17 21l-9 4h-13c-15-1-24-9-30-22l-5-13-2-8c-1-1-2 0-3 1-6 5-12 10-19 13l-9 3h-15c-5-2-10-3-13-7l-7-7a29 29 0 0 1-5-12l-1-5v-11c1-7 4-12 7-17l1-3 1-2c2-2 1-3-1-4h-2c-16 0-31-10-36-28v-2a36 36 0 0 1 26-43l11-2c3-1 4-2 2-4-4-6-6-11-8-17-3-12-3-23 3-34 8-13 24-21 41-15 8 2 15 7 22 12l2 1c2 1 3 1 4-1l1-10c4-15 11-26 27-32 7-2 14-2 21 0s14 6 18 12l2 2c3 3 5 8 7 13l3 15c2 2 3 2 5 1 5-5 11-9 18-11 9-4 18-5 28-2 6 2 11 6 15 11s7 11 8 17v16c-2 8-5 15-10 22l-1 2 1 1 12 3a39 39 0 0 1 21 15l1 1 2 3 2 5c7 18-2 38-19 46Z"/><path d="M363 233a95 95 0 0 0-48-61 96 96 0 0 0-130 38 91 91 0 0 0 7 101l16 16a193 193 0 0 0 23 14h2l3 1a99 99 0 0 0 113-36 88 88 0 0 0 14-73Z" opacity=".2"/><path d="M200 243c-3 0-5 2-5 5 0 4 2 6 5 6s6-2 6-6c0-3-2-5-6-5ZM307 243c-3 0-6 2-6 5 0 4 3 6 6 6s6-2 6-6c0-2-3-5-6-5Z" class="cls-5"/><path d="M354 228a95 95 0 0 0-47-61 96 96 0 0 0-131 38 91 91 0 0 0 8 101c4 6 9 11 15 16a193 193 0 0 0 23 14h2l3 1a99 99 0 0 0 113-36 88 88 0 0 0 14-73Z" class="cls-5"/><path d="M188 254c-1-12 8-21 19-21s20 9 20 20c0 10-9 20-20 20-10 0-20-8-19-19Zm12 0c3 0 6-2 6-6 0-3-2-5-6-5-3 0-5 2-5 5 0 4 2 6 5 6ZM334 253c0 9-8 20-19 20s-20-9-20-20 8-20 20-20c11 0 19 10 19 20Zm-27 1c3 0 6-2 6-6 0-2-3-5-6-5s-6 2-6 5 3 6 6 6ZM256 274c-4 0-10-3-14-9-2-4-3-8-2-13 0-3 3-5 6-5s5 2 6 6c1 6 8 10 14 6 2-1 3-3 4-6 0-4 2-6 5-6 2 0 5 1 6 4v9c-3 9-11 14-25 14Z"/><path fill="#0e2636" d="M343 373c-11 0-20-3-28-8-3-2-3-2-4 1-8 18-20 29-39 32-22 4-42-6-53-26l-3-7c0-2-1-2-2-1a48 48 0 0 1-76-33c-2-9-1-18 3-27 0-2 0-3-2-4-18-7-29-20-32-39a50 50 0 0 1 32-55c3-1 2-1 1-4-5-15-5-31 2-46 8-18 28-29 47-27 9 1 16 4 23 8 2 1 2 1 3-1 4-13 12-23 23-30 18-10 36-9 54 2 10 7 17 17 20 29 1 2 2 0 2 0a50 50 0 0 1 76 32c3 11 1 22-3 33-1 3-1 3 2 4 17 7 27 18 31 36 4 20-2 41-21 53l-11 5c-1 1-2 2-1 3 4 10 5 19 3 29-3 20-18 37-41 40l-6 1Zm57-141-1-2c-5-6-12-10-20-13l-12-3-1-1 1-2c5-7 8-14 10-22a40 40 0 0 0-8-33c-4-5-9-9-15-11-10-3-19-2-28 2-7 2-13 6-18 11-2 1-3 1-5-1l-3-15c-2-5-4-10-7-13l-2-2c-9-12-25-16-39-12-16 6-23 17-27 32l-1 10c-1 2-2 2-4 1l-2-1c-7-5-14-10-22-12-17-6-33 2-41 15-6 11-6 22-3 34 2 6 4 11 8 17 2 2 1 3-2 4l-11 2c-9 3-16 8-21 16s-7 17-5 27v2c5 18 20 28 36 28h2c2 1 3 2 1 4l-1 2-1 3c-3 5-6 10-7 17v11l1 5 5 12 7 7c3 4 8 5 13 7h15l9-3c7-3 13-8 19-13 1-1 2-2 3-1l2 8 5 13c6 13 15 21 30 22 8 1 15 0 22-4 8-5 13-12 17-21l4-16c1-2 2-3 4-1l3 2c8 7 17 13 28 14 21 3 39-13 39-35 0-9-3-17-7-25l-4-6 1-1c6-1 13-2 19-5 17-7 26-27 19-45l-2-5c0-2-1-2-2-3l-1-1Z"/><path d="M343 373c-11 0-20-3-28-8-3-2-3-2-4 1-8 18-20 29-39 32-22 4-42-6-53-26l-3-7c0-2-1-2-2-1a48 48 0 0 1-76-33c-2-9-1-18 3-27 0-2 0-3-2-4-18-7-29-20-32-39a50 50 0 0 1 32-55c3-1 2-1 1-4-5-15-5-31 2-46 8-18 28-29 47-27 9 1 16 4 23 8 2 1 2 1 3-1 4-13 12-23 23-30 18-10 36-9 54 2 10 7 17 17 20 29 1 2 2 0 2 0a50 50 0 0 1 76 32c3 11 1 22-3 33-1 3-1 3 2 4 17 7 27 18 31 36 4 20-2 41-21 53l-11 5c-1 1-2 2-1 3 4 10 5 19 3 29-3 20-18 37-41 40l-6 1Zm57-141-1-2c-5-6-12-10-20-13l-12-3-1-1 1-2c5-7 8-14 10-22a40 40 0 0 0-8-33c-4-5-9-9-15-11-10-3-19-2-28 2-7 2-13 6-18 11-2 1-3 1-5-1l-3-15c-2-5-4-10-7-13l-2-2c-9-12-25-16-39-12-16 6-23 17-27 32l-1 10c-1 2-2 2-4 1l-2-1c-7-5-14-10-22-12-17-6-33 2-41 15-6 11-6 22-3 34 2 6 4 11 8 17 2 2 1 3-2 4l-11 2c-9 3-16 8-21 16s-7 17-5 27v2c5 18 20 28 36 28h2c2 1 3 2 1 4l-1 2-1 3c-3 5-6 10-7 17v11l1 5 5 12 7 7c3 4 8 5 13 7h15l9-3c7-3 13-8 19-13 1-1 2-2 3-1l2 8 5 13c6 13 15 21 30 22 8 1 15 0 22-4 8-5 13-12 17-21l4-16c1-2 2-3 4-1l3 2c8 7 17 13 28 14 21 3 39-13 39-35 0-9-3-17-7-25l-4-6 1-1c6-1 13-2 19-5 17-7 26-27 19-45l-2-5c0-2-1-2-2-3l-1-1Z"/></g></svg>